<?xml version="1.0" encoding="utf-8"?>
<!-- Generator: Adobe Illustrator 22.1.0, SVG Export Plug-In . SVG Version: 6.00 Build 0)  -->
<svg version="1.1" id="Layer_1" xmlns="http://www.w3.org/2000/svg" xmlns:xlink="http://www.w3.org/1999/xlink" x="0px" y="0px"
	 width="850.4px" height="850.4px" viewBox="0 0 850.4 850.4" style="enable-background:new 0 0 850.4 850.4;" xml:space="preserve"
	>
<style type="text/css">
	.st0{fill:#C22440;}
	.st1{fill:#720C1D;}
	.st2{fill:#C69636;}
	.st3{fill:#010202;}
</style>
<g>
	<path class="st0" d="M717.3,397.2v16.3H261.7v-16.3H306l-30.2-229.9c7.6,4.7,16.6,7.4,26.1,7.4h368.2c11,0,21.1-3.5,29.3-9.5
		L669,397.2H717.3z M261.1,598.8h71.4l24.3,184.6c0.4,3.1,1.5,6.1,3.2,8.7c8.9,13.9,42.2,55,125,54.3c36.5-0.3,98.6-12.2,129.6-54.2
		c2.1-2.9,3.4-6.3,3.9-9.8l24.1-183.6h74.2v-16.3H261.1V598.8z"/>
	<path class="st1" d="M720.2,123.8v0.7c0,16.7-8.2,31.5-20.8,40.6c-8.2,6-18.4,9.5-29.3,9.5H301.9c-9.6,0-18.5-2.7-26.1-7.4
		c-14.4-8.8-23.9-24.7-23.9-42.8v-2.2c0-7.4,3-14.2,7.9-19.1c4.9-4.9,11.6-7.9,19-7.9c1.5-80,11.7-92.9,202.6-90.6
		C667.9,7,685.7,6.6,691.8,95.4C707.5,95.4,720.2,108.2,720.2,123.8z"/>
	<path class="st2" d="M537.5,608.1h-97.4c-12.1,0-21.9,9.8-21.9,21.9v123.9c0,12.1,9.8,21.9,21.9,21.9h97.4
		c12.1,0,21.9-9.8,21.9-21.9V629.9C559.4,617.8,549.6,608.1,537.5,608.1z M504.5,738.2h-31.4c-9.6,0-17.5-7.8-17.5-17.5V663
		c0-9.6,7.8-17.5,17.5-17.5h31.4c9.6,0,17.5,7.8,17.5,17.5v14.5h-7.1c-5.9,0-10.7,4.8-10.7,10.7v4.1c0,5.9,4.8,10.7,10.7,10.7h7.1
		v17.8C522,730.4,514.1,738.2,504.5,738.2z"/>
	<path class="st3" d="M522,663v14.5h-7.1c-5.9,0-10.7,4.8-10.7,10.7v4.1c0,5.9,4.8,10.7,10.7,10.7h7.1v17.8
		c0,9.6-7.8,17.5-17.5,17.5h-31.4c-9.6,0-17.5-7.8-17.5-17.5V663c0-9.6,7.8-17.5,17.5-17.5h31.4C514.1,645.5,522,653.3,522,663z
		 M559.3,627.9c0.1,0.7,0.1,1.3,0.1,2v121h63.1l16.2-123H559.3z M418.2,629.9c0-0.7,0-1.3,0.1-2h-82l16.2,123h65.8V629.9z"/>
	<path class="st2" d="M537.5,226.8h-97.4c-12.1,0-21.9,9.8-21.9,21.9v123.9c0,12.1,9.8,21.9,21.9,21.9h97.4
		c12.1,0,21.9-9.8,21.9-21.9V248.7C559.4,236.6,549.6,226.8,537.5,226.8z M504.5,357h-31.4c-9.6,0-17.5-7.8-17.5-17.5v-57.8
		c0-9.6,7.8-17.5,17.5-17.5h31.4c9.6,0,17.5,7.8,17.5,17.5v14.5h-7.1c-5.9,0-10.7,4.8-10.7,10.7v4.1c0,5.9,4.8,10.7,10.7,10.7h7.1
		v17.8C522,349.2,514.1,357,504.5,357z"/>
	<path class="st3" d="M522,281.7v14.5h-7.1c-5.9,0-10.7,4.8-10.7,10.7v4.1c0,5.9,4.8,10.7,10.7,10.7h7.1v17.8
		c0,9.6-7.8,17.5-17.5,17.5h-31.4c-9.6,0-17.5-7.8-17.5-17.5v-57.8c0-9.6,7.8-17.5,17.5-17.5h31.4C514.1,264.3,522,272.1,522,281.7z
		 M559.4,250.8v121.8c0,0.4,0,0.8-0.1,1.2h112.7l16.2-123H559.4z M418.2,372.6V250.8H287c-0.1,0-0.2,0-0.3,0l16.2,123h115.4
		C418.2,373.4,418.2,373,418.2,372.6z"/>
</g>
</svg>
